<svg width="80" height="80" viewBox="0 0 80 80" fill="none" xmlns="http://www.w3.org/2000/svg">
<g clip-path="url(#clip0_22_3)">
<path d="M69.8222 20.2L40.9333 6.86667C40.6408 6.73129 40.3223 6.66116 40 6.66116C39.6777 6.66116 39.3592 6.73129 39.0667 6.86667L10.1778 20.2C9.79205 20.3785 9.4656 20.6639 9.23715 21.0223C9.00871 21.3808 8.88784 21.7972 8.88889 22.2222V60C8.88784 60.425 9.00871 60.8415 9.23715 61.1999C9.4656 61.5583 9.79205 61.8437 10.1778 62.0222L39.0667 75.3556C39.3592 75.4909 39.6777 75.5611 40 75.5611C40.3223 75.5611 40.6408 75.4909 40.9333 75.3556L69.8222 62.0222C70.208 61.8437 70.5344 61.5583 70.7629 61.1999C70.9913 60.8415 71.1122 60.425 71.1111 60V22.2222C71.1122 21.7972 70.9913 21.3808 70.7629 21.0223C70.5344 20.6639 70.208 20.3785 69.8222 20.2ZM40 33.1111L16.4222 22.2222L40 11.3333L63.5778 22.2222L40 33.1111ZM66.6667 58.5778L42.2222 69.8667V36.9778L66.6667 25.6889V58.5778Z" fill="#333333"/>
</g>
<defs>
<clipPath id="clip0_22_3">
<rect width="80" height="80" fill="white"/>
</clipPath>
</defs>
</svg>
